<svg viewBox="0 0 375 20.3407" fill="none" xmlns="http://www.w3.org/2000/svg">
<path id="Rectangle 19938" d="M0 0H375V19.2378C375 20.0143 374.154 20.4945 373.487 20.0963L365.332 15.2253C364.069 14.4706 362.493 14.4706 361.23 15.2253L353.614 19.7747C352.35 20.5294 350.775 20.5294 349.511 19.7747L341.895 15.2253C340.632 14.4706 339.056 14.4706 337.792 15.2253L330.176 19.7747C328.913 20.5294 327.337 20.5294 326.074 19.7747L318.457 15.2253C317.194 14.4706 315.618 14.4706 314.355 15.2253L306.739 19.7747C305.475 20.5294 303.9 20.5294 302.636 19.7747L295.02 15.2253C293.757 14.4706 292.181 14.4706 290.917 15.2253L283.301 19.7747C282.038 20.5294 280.462 20.5294 279.199 19.7747L271.582 15.2253C270.319 14.4706 268.743 14.4706 267.48 15.2253L259.864 19.7747C258.6 20.5294 257.025 20.5294 255.761 19.7747L248.145 15.2253C246.882 14.4706 245.306 14.4706 244.042 15.2253L236.426 19.7747C235.163 20.5294 233.587 20.5294 232.324 19.7747L224.707 15.2253C223.444 14.4706 221.868 14.4706 220.605 15.2253L212.989 19.7747C211.725 20.5294 210.15 20.5294 208.886 19.7747L201.27 15.2253C200.007 14.4706 198.431 14.4706 197.167 15.2253L189.551 19.7747C188.288 20.5294 186.712 20.5294 185.449 19.7747L177.832 15.2253C176.569 14.4706 174.993 14.4706 173.73 15.2253L166.114 19.7747C164.85 20.5294 163.275 20.5294 162.011 19.7747L154.395 15.2253C153.132 14.4706 151.556 14.4706 150.292 15.2253L142.676 19.7747C141.413 20.5294 139.837 20.5294 138.574 19.7747L130.957 15.2253C129.694 14.4706 128.118 14.4706 126.855 15.2253L119.239 19.7747C117.975 20.5294 116.4 20.5294 115.136 19.7747L107.52 15.2253C106.257 14.4706 104.681 14.4706 103.418 15.2253L95.8012 19.7747C94.5379 20.5294 92.9621 20.5294 91.6988 19.7747L84.0825 15.2253C82.8191 14.4706 81.2434 14.4706 79.98 15.2253L72.3637 19.7747C71.1004 20.5294 69.5246 20.5294 68.2613 19.7747L60.645 15.2253C59.3816 14.4706 57.8059 14.4706 56.5425 15.2253L48.9262 19.7747C47.6629 20.5294 46.0871 20.5294 44.8238 19.7747L37.2075 15.2253C35.9441 14.4706 34.3684 14.4706 33.105 15.2253L25.4887 19.7747C24.2254 20.5294 22.6496 20.5294 21.3863 19.7747L13.77 15.2253C12.5066 14.4706 10.9309 14.4706 9.6675 15.2253L1.51281 20.0963C0.846255 20.4945 0 20.0143 0 19.2378V0Z" fill="var(--fill-0, white)"/>
</svg>
